<svg xmlns="http://www.w3.org/2000/svg" xmlns:xlink="http://www.w3.org/1999/xlink" width="1024" zoomAndPan="magnify" viewBox="0 0 768 767.999994" height="1024" preserveAspectRatio="xMidYMid meet" version="1.0"><defs><g/><clipPath id="1ddebc0734"><path d="M 443 28.722656 L 650.792969 28.722656 L 650.792969 236 L 443 236 Z M 443 28.722656 " clip-rule="nonzero"/></clipPath><clipPath id="6e944a79fc"><path d="M 117.542969 28.722656 L 650.792969 28.722656 L 650.792969 738.972656 L 117.542969 738.972656 Z M 117.542969 28.722656 " clip-rule="nonzero"/></clipPath><clipPath id="be3d8f3790"><rect x="0" width="452" y="0" height="274"/></clipPath></defs><g clip-path="url(#1ddebc0734)"><path fill="#0049ad" d="M 650.453125 235.9375 L 443.210938 28.699219 L 443.210938 235.9375 Z M 650.453125 235.9375 " fill-opacity="1" fill-rule="nonzero"/></g><g clip-path="url(#6e944a79fc)"><path fill="#0049ad" d="M 383.996094 235.9375 L 383.996094 28.699219 L 176.757812 28.699219 C 144.054688 28.699219 117.542969 55.175781 117.542969 87.878906 L 117.542969 680.03125 C 117.542969 712.769531 144.054688 739.238281 176.757812 739.238281 L 591.238281 739.308594 C 623.914062 739.308594 650.453125 712.769531 650.453125 680.085938 L 650.453125 295.15625 L 443.210938 295.15625 C 410.507812 295.15625 383.996094 268.605469 383.996094 235.9375 Z M 383.996094 235.9375 " fill-opacity="1" fill-rule="nonzero"/></g><g transform="matrix(1, 0, 0, 1, 157, 421)"><g clip-path="url(#be3d8f3790)"><g fill="#ffffff" fill-opacity="1"><g transform="translate(3.951594, 220.198575)"><g><path d="M 46.625 0 L 14.953125 0 L 14.953125 -167.8125 L 46.625 -167.8125 Z M 46.625 0 "/></g></g></g><g fill="#ffffff" fill-opacity="1"><g transform="translate(65.524018, 220.198575)"><g><path d="M 46.625 0 L 14.953125 0 L 14.953125 -167.8125 L 67.296875 -167.8125 L 102.046875 -38.265625 L 136.578125 -167.8125 L 189.359375 -167.8125 L 189.359375 0 L 157.6875 0 L 157.6875 -144.0625 L 117.671875 0 L 86.65625 0 L 46.625 -143.171875 Z M 46.625 0 "/></g></g></g><g fill="#ffffff" fill-opacity="1"><g transform="translate(269.812495, 220.198575)"><g><path d="M 90.390625 3.078125 C 76.316406 3.078125 64.144531 0.730469 53.875 -3.953125 C 43.613281 -8.648438 35.109375 -15.101562 28.359375 -23.3125 C 21.617188 -31.519531 16.632812 -40.828125 13.40625 -51.234375 C 10.1875 -61.648438 8.578125 -72.578125 8.578125 -84.015625 C 8.578125 -95.453125 10.1875 -106.375 13.40625 -116.78125 C 16.632812 -127.195312 21.617188 -136.472656 28.359375 -144.609375 C 35.109375 -152.742188 43.613281 -159.15625 53.875 -163.84375 C 64.144531 -168.539062 76.316406 -170.890625 90.390625 -170.890625 C 112.085938 -170.890625 129.351562 -165.753906 142.1875 -155.484375 C 155.019531 -145.222656 163.125 -131.8125 166.5 -115.25 L 131.75 -115.25 C 128.957031 -123.894531 124.113281 -130.597656 117.21875 -135.359375 C 110.332031 -140.128906 101.316406 -142.515625 90.171875 -142.515625 C 79.472656 -142.515625 70.53125 -139.945312 63.34375 -134.8125 C 56.15625 -129.6875 50.726562 -122.722656 47.0625 -113.921875 C 43.394531 -105.128906 41.5625 -95.234375 41.5625 -84.234375 C 41.5625 -72.941406 43.46875 -62.859375 47.28125 -53.984375 C 51.09375 -45.117188 56.8125 -38.117188 64.4375 -32.984375 C 72.0625 -27.859375 81.59375 -25.296875 93.03125 -25.296875 C 106.226562 -25.296875 116.710938 -28.628906 124.484375 -35.296875 C 132.253906 -41.972656 136.285156 -51.90625 136.578125 -65.09375 L 99.40625 -65.09375 L 99.40625 -91.28125 L 168.03125 -91.28125 L 168.03125 0 L 139.21875 0 L 139.21875 -18.921875 C 133.351562 -10.554688 125.984375 -4.796875 117.109375 -1.640625 C 108.242188 1.503906 99.335938 3.078125 90.390625 3.078125 Z M 90.390625 3.078125 "/></g></g></g></g></g></svg>